# xmcd
# 
# Track frame offsets:
#     150
#     43695
#     79247
#     107240
#     138160
#     168420
#     188357
# 
# Disc length: 2567
# 
# Revision: 16
# Processed by: cddbd v1.5.2PL0 Copyright (c) Steve Scherf et al.
# Submitted via: BonkEnc v1.0.8
# 
DISCID=520a0507
DTITLE=Kraftwerk - Trans-Europe Express（ヨーロッパ特急）
DYEAR=1977
DGENRE=Techno
TTITLE0=Europe Endless
TTITLE1=The Hall of Mirror（鏡のホール）
TTITLE2=Showroom Dummies
TTITLE3=Trans-Europe Express（ヨーロッパ特急）
TTITLE4=Metal on Metal
TTITLE5=Franz Schubert
TTITLE6=Endless Endless
EXTD=
EXTT0=
EXTT1=
EXTT2=
EXTT3=
EXTT4=
EXTT5=
EXTT6=
PLAYORDER=
